<?xml version="1.0" encoding="UTF-8" standalone="no"?>
<!DOCTYPE svg PUBLIC "-//W3C//DTD SVG 1.1//EN" "http://www.w3.org/Graphics/SVG/1.1/DTD/svg11.dtd">
<svg width="100%" height="100%" viewBox="0 0 111 110" version="1.1" xmlns="http://www.w3.org/2000/svg" xmlns:xlink="http://www.w3.org/1999/xlink" xml:space="preserve" xmlns:serif="http://www.serif.com/" style="fill-rule:evenodd;clip-rule:evenodd;stroke-linejoin:round;stroke-miterlimit:2;">
    <path d="M81.884,95.448L81.89,97.69C81.89,97.69 83.64,109.846 55.609,109.846C26.314,109.846 28.577,95.19 28.577,95.19L28.577,70.971C28.577,56.324 43.484,56.565 43.484,56.565L70.015,56.565C85.925,56.565 85.421,40.909 85.421,40.909L85.421,27.784L94.765,27.784C94.765,27.784 110.421,26.781 110.421,55.065C110.421,83.349 92.484,81.315 92.484,81.315L81.884,81.315L81.884,95.448ZM28.541,16L28.531,12.156C28.531,12.156 26.781,0 54.812,0C84.107,0 81.844,14.656 81.844,14.656L81.844,38.875C81.844,53.522 66.937,53.281 66.937,53.281L40.406,53.281C24.496,53.281 25,68.937 25,68.937L25,82.062L15.656,82.062C15.656,82.062 -0,83.066 0,54.781C0,26.497 17.937,28.531 17.937,28.531L28.537,28.531L28.537,16L28.541,16ZM55.211,20.279C59.35,20.279 62.711,23.64 62.711,27.779C62.711,31.919 59.35,35.279 55.211,35.279C51.071,35.279 47.711,31.919 47.711,27.779C47.711,23.64 51.071,20.279 55.211,20.279Z" style="fill:url(#_Radial1);"/>
    <defs>
        <radialGradient id="_Radial1" cx="0" cy="0" r="1" gradientUnits="userSpaceOnUse" gradientTransform="matrix(110.421,0,0,109.846,-1.91617e-13,54.923)"><stop offset="0" style="stop-color:rgb(255,232,0);stop-opacity:1"/><stop offset="0.18" style="stop-color:rgb(255,103,31);stop-opacity:1"/><stop offset="0.3" style="stop-color:rgb(254,46,16);stop-opacity:1"/><stop offset="0.39" style="stop-color:rgb(253,21,10);stop-opacity:1"/><stop offset="0.63" style="stop-color:rgb(128,6,184);stop-opacity:1"/><stop offset="0.83" style="stop-color:rgb(77,0,255);stop-opacity:1"/><stop offset="1" style="stop-color:rgb(237,0,231);stop-opacity:1"/></radialGradient>
    </defs>
</svg>
